<svg xmlns="http://www.w3.org/2000/svg" width="1200" height="720" viewBox="0 0 1200 720" role="img" aria-label="Plenara demo preview showing needs review state"><rect width="1200" height="720" fill="#f8fafc"/><rect width="1200" height="76" fill="#fff"/><text x="80" y="38" font-family="Arial,sans-serif" font-size="24" font-weight="700" fill="#0f172a">AuthFlow AI · Plenara</text><text x="80" y="62" font-family="Arial,sans-serif" font-size="14" fill="#64748b">Prior Authorization Readiness — synthetic demo</text><rect y="76" width="1200" height="42" fill="#fef3c7"/><text x="360" y="102" font-family="Arial,sans-serif" font-size="13" fill="#92400e">Synthetic / mock data only · No PHI · Not for clinical or production use</text><text x="86" y="158" font-family="Arial,sans-serif" font-size="13" font-weight="700" fill="#64748b" letter-spacing="2">SCENARIO</text><text x="184" y="159" font-family="Arial,sans-serif" font-size="13" font-weight="700" fill="#475569">READY</text><rect x="250" y="134" width="132" height="40" rx="20" fill="#fff" stroke="#2563eb" stroke-width="2"/><text x="272" y="159" font-family="Arial,sans-serif" font-size="13" font-weight="700" fill="#1d4ed8">NEEDS REVIEW</text><text x="410" y="159" font-family="Arial,sans-serif" font-size="13" font-weight="700" fill="#475569">BLOCKED</text><g transform="translate(80 210)"><rect width="300" height="360" rx="10" fill="#fff" stroke="#e2e8f0"/><text x="24" y="40" font-family="Arial,sans-serif" font-size="14" font-weight="700" fill="#1e293b" letter-spacing="2">SYNTHETIC NOTE</text><rect x="24" y="70" width="252" height="250" rx="6" fill="#f8fafc" stroke="#e2e8f0"/><text x="42" y="110" font-family="monospace" font-size="14" fill="#334155">Mock note excerpt</text><text x="42" y="140" font-family="monospace" font-size="14" fill="#334155">Required evidence present</text><text x="42" y="170" font-family="monospace" font-size="14" fill="#334155">One critical field unclear</text><text x="42" y="200" font-family="monospace" font-size="14" fill="#334155">Coordinator review needed</text></g><g transform="translate(430 210)"><rect width="380" height="360" rx="10" fill="#fff" stroke="#e2e8f0"/><text x="24" y="40" font-family="Arial,sans-serif" font-size="14" font-weight="700" fill="#1e293b" letter-spacing="2">EXTRACTED FIELDS</text><rect x="24" y="90" width="332" height="54" rx="6" fill="#fff7ed" stroke="#fdba74"/><text x="42" y="123" font-family="Arial,sans-serif" font-size="13" fill="#475569">Critical criterion</text><text x="200" y="123" font-family="monospace" font-size="14" fill="#0f172a">Yes</text><rect x="270" y="106" width="68" height="22" rx="11" fill="#fee2e2"/><text x="281" y="122" font-family="Arial,sans-serif" font-size="11" font-weight="700" fill="#b91c1c">LOW 0.50</text><rect x="24" y="164" width="332" height="54" rx="6" fill="#f8fafc" stroke="#e2e8f0"/><text x="42" y="197" font-family="Arial,sans-serif" font-size="13" fill="#475569">Prior step</text><text x="200" y="197" font-family="monospace" font-size="14" fill="#0f172a">Met</text><rect x="264" y="180" width="74" height="22" rx="11" fill="#dcfce7"/><text x="274" y="196" font-family="Arial,sans-serif" font-size="11" font-weight="700" fill="#166534">HIGH 0.95</text><rect x="24" y="238" width="332" height="54" rx="6" fill="#f8fafc" stroke="#e2e8f0"/><text x="42" y="271" font-family="Arial,sans-serif" font-size="13" fill="#475569">Specialist review</text><text x="200" y="271" font-family="monospace" font-size="14" fill="#0f172a">Present</text><rect x="264" y="254" width="74" height="22" rx="11" fill="#dcfce7"/><text x="274" y="270" font-family="Arial,sans-serif" font-size="11" font-weight="700" fill="#166534">HIGH 0.95</text></g><g transform="translate(860 210)"><rect width="260" height="360" rx="10" fill="#fff" stroke="#e2e8f0"/><text x="24" y="40" font-family="Arial,sans-serif" font-size="14" font-weight="700" fill="#1e293b" letter-spacing="2">READINESS</text><rect x="24" y="70" width="212" height="68" rx="7" fill="#fef3c7" stroke="#d97706" stroke-width="2"/><text x="52" y="112" font-family="Arial,sans-serif" font-size="22" font-weight="800" fill="#b45309">NEEDS REVIEW</text><text x="24" y="174" font-family="Arial,sans-serif" font-size="12" font-weight="700" fill="#64748b" letter-spacing="1.5">REVIEW FLAG</text><rect x="24" y="192" width="212" height="66" rx="6" fill="#fff7ed" stroke="#fed7aa"/><text x="42" y="220" font-family="Arial,sans-serif" font-size="13" font-weight="700" fill="#9a3412">Low-confidence field</text><text x="42" y="242" font-family="Arial,sans-serif" font-size="12" fill="#9a3412">Human review before next step</text><text x="24" y="292" font-family="Arial,sans-serif" font-size="12" font-weight="700" fill="#64748b" letter-spacing="1.5">SUMMARY</text><rect x="24" y="310" width="48" height="48" rx="6" fill="#f0fdf4" stroke="#16a34a"/><text x="43" y="340" font-family="Arial,sans-serif" font-size="18" font-weight="800" fill="#15803d">6</text><rect x="84" y="310" width="48" height="48" rx="6" fill="#fff" stroke="#e2e8f0"/><text x="103" y="340" font-family="Arial,sans-serif" font-size="18" font-weight="800" fill="#0f172a">0</text><rect x="144" y="310" width="48" height="48" rx="6" fill="#fef2f2" stroke="#ef4444"/><text x="163" y="340" font-family="Arial,sans-serif" font-size="18" font-weight="800" fill="#b91c1c">1</text></g></svg>